<?xml version="1.0" encoding="UTF-8"?>
<!DOCTYPE svg PUBLIC "-//W3C//DTD SVG 1.1//EN" "http://www.w3.org/Graphics/SVG/1.1/DTD/svg11.dtd">
<!-- Creator: CorelDRAW -->
<svg xmlns="http://www.w3.org/2000/svg" xml:space="preserve" width="54.0505mm" height="54.0505mm" style="shape-rendering:geometricPrecision; text-rendering:geometricPrecision; image-rendering:optimizeQuality; fill-rule:evenodd; clip-rule:evenodd"
viewBox="0 0 5.55473 5.55473"
 xmlns:xlink="http://www.w3.org/1999/xlink">
 <defs>
  <style type="text/css">
   <![CDATA[
    .str0 {stroke:#239632;stroke-width:0.205539}
    .fil0 {fill:white}
    .fil1 {fill:#239632}
   ]]>
  </style>
 </defs>
 <g id="Слой_x0020_1">
  <metadata id="CorelCorpID_0Corel-Layer"/>
  <path class="fil0 str0" d="M2.77738 0.102769c1.47711,0 2.67458,1.19747 2.67458,2.67461 0,1.47711 -1.19747,2.67458 -2.67458,2.67458 -1.47714,0 -2.67461,-1.19747 -2.67461,-2.67458 0,-1.47714 1.19747,-2.67461 2.67461,-2.67461z"/>
  <polygon class="fil1" points="2.03161,1.86896 3.36384,1.17373 3.8416,2.08923 2.50934,2.78446 "/>
  <polygon class="fil1" points="4.45626,3.24454 3.12403,3.93978 2.64627,3.02431 3.9785,2.32904 "/>
  <path class="fil1" d="M2.30524 0.76928c0.313231,-0.163465 0.703487,-0.0563895 0.946269,0.235455 0.0423101,0.0508605 0.0801498,0.107353 0.112327,0.168994 0.21672,0.415291 0.0941778,0.907741 -0.273644,1.09969 -0.367832,0.191963 -0.841876,0.0108422 -1.0586,-0.404449 -0.0304814,-0.0584038 -0.0542417,-0.118329 -0.0715686,-0.178726 -0.105842,-0.369106 0.0291043,-0.756002 0.345212,-0.920967z"/>
  <path class="fil1" d="M4.18263 4.34423c-0.313231,0.163465 -0.703487,0.0563998 -0.946269,-0.235445 -0.0423101,-0.0508605 -0.0801601,-0.107353 -0.112327,-0.169004 -0.21673,-0.415291 -0.0941881,-0.907741 0.273644,-1.09969 0.367832,-0.191953 0.841876,-0.0108422 1.0586,0.404449 0.0304814,0.0584038 0.0542314,0.118329 0.0715583,0.178736 0.105852,0.369106 -0.0291043,0.756002 -0.345202,0.920957z"/>
  <path class="fil1" d="M2.27497 3.4382c0.178654,0.232608 0.156096,0.556393 -0.0402342,0.762209l-0.706549 -0.91994c0.249503,-0.13658 0.568129,-0.0748777 0.746784,0.15773zm-0.151091 0.853181c-0.253758,0.161379 -0.593267,0.104938 -0.779937,-0.138112 -0.18667,-0.243049 -0.15362,-0.585631 0.0677558,-0.789166l0.712181 0.927277z"/>
  <path class="fil1" d="M1.51954 2.26398c0.174523,-0.110025 0.399834,-0.0731923 0.531245,0.0776833l-0.69024 0.435146c-0.0794612,-0.183618 -0.0155387,-0.402804 0.158994,-0.512829zm0.587769 0.161235c0.0965621,0.188212 0.034993,0.422361 -0.147381,0.537329 -0.182364,0.114958 -0.420183,0.0695646 -0.548367,-0.0987202l0.695748 -0.438609z"/>
 </g>
</svg>
